PathFileType	4	(X/Y/Z)	./resultDataOpenSim/trcMotMarkerGrf/sub10/qtm-03-03.trc
DataRate	CameraRate	NumFrames	NumMarkers	Units	OrigDataRate	OrigDataStartFrame	OrigNumFrames
250.000000	250.000000	12	24	m	250.000000	397	528
Frame#	Time	L.Toe.Tip			R.Toe.Tip			L.Ankle.Lat			R.Ankle.Lat			L.Ankle.Med			R.Ankle.Med			L.Heel			R.Heel			L.Knee.Lat			R.Knee.Lat			L.Knee.Med			R.Knee.Med			L.Thigh.Upper			R.Thigh.Upper			L.ASIS			R.ASIS			V.Sacral			L.Acromium			R.Acromium			C7			L.Elbow			R.Elbow			L.Wrist.Lat			R.Wrist.Lat
		X1	Y1	Z1	X2	Y2	Z2	X3	Y3	Z3	X4	Y4	Z4	X5	Y5	Z5	X6	Y6	Z6	X7	Y7	Z7	X8	Y8	Z8	X9	Y9	Z9	X10	Y10	Z10	X11	Y11	Z11	X12	Y12	Z12	X13	Y13	Z13	X14	Y14	Z14	X15	Y15	Z15	X16	Y16	Z16	X17	Y17	Z17	X18	Y18	Z18	X19	Y19	Z19	X20	Y20	Z20	X21	Y21	Z21	X22	Y22	Z22	X23	Y23	Z23	X24	Y24	Z24

397	1.584	1.0330251	0.066932896	-0.099470307	0.90899039	0.039424824	0.089918824	0.91521249	0.13190468	-0.11240209	0.765994	0.054217798	0.12737958	0.93884014	0.14789469	-0.031760266	0.78704414	0.07906172	0.042691867	0.8502166	0.1181701	-0.060061572	0.71629884	0.029178384	0.082204231	1.0619942	0.49276739	-0.13286028	0.85824605	0.44782718	0.1511552	1.0891302	0.46568669	-0.013774828	0.87208701	0.45003476	0.022772589	0.91088969	0.83655909	-0.18000526	0.83336603	0.86685553	0.19579965	0.94500852	0.948156	-0.10622711	0.91312986	0.9574429	0.13382409	0.73454613	0.96229905	-0.016225666	0.89244372	1.4239852	-0.13948874	0.82521234	1.4211834	0.17557345	0.78096193	1.4461126	-0.0011351782	0.79637217	1.0946414	-0.21197855	0.73354474	1.0692513	0.21715319	0.93550351	0.9012313	-0.2712597	0.93647178	0.95423698	0.30869924
398	1.588	1.0503026	0.066285408	-0.099718031	0.90899376	0.039441553	0.089948961	0.93069769	0.1279501	-0.11252281	0.76603743	0.054300547	0.12723418	0.95634641	0.14488571	-0.032748393	0.78697733	0.079041187	0.042470689	0.86634718	0.11257139	-0.059923878	0.71612999	0.029277104	0.081881469	1.0685274	0.49295264	-0.13315666	0.85976364	0.44753428	0.15102911	1.0956408	0.46599648	-0.014141647	0.87406034	0.44953838	0.022781149	0.91658699	0.8368608	-0.18032549	0.83671973	0.86655471	0.19534443	0.95042488	0.94833869	-0.10589825	0.91721295	0.95723278	0.13395543	0.73999484	0.96236435	-0.017432145	0.89708715	1.4237787	-0.13975071	0.82986569	1.421081	0.17539027	0.78562335	1.4459538	-0.0013974186	0.79984941	1.0950289	-0.21191321	0.74010647	1.0687245	0.21887856	0.93657018	0.90032596	-0.27244783	0.94515255	0.95599769	0.30864423
399	1.592	1.0675823	0.065723535	-0.10004272	0.90899036	0.039462875	0.089984885	0.94629434	0.12408654	-0.11272777	0.76611204	0.054380598	0.12707066	0.97322059	0.14180729	-0.033752328	0.78691902	0.079024801	0.042249671	0.88255917	0.10709858	-0.05996726	0.71593431	0.02938756	0.081523001	1.0748723	0.49295918	-0.13346391	0.86135648	0.44722333	0.15089779	1.1020334	0.46613436	-0.014524392	0.87615196	0.44899364	0.022824114	0.92245895	0.83710215	-0.18062379	0.83985513	0.86611677	0.19503878	0.95590021	0.94844953	-0.10557804	0.9213213	0.95698358	0.1341142	0.74535409	0.9622795	-0.018669896	0.90173387	1.4235046	-0.14002304	0.83451761	1.4208898	0.1751898	0.79028909	1.4457247	-0.0016594474	0.80327544	1.0953614	-0.2120209	0.74663559	1.0681429	0.22051604	0.937629	0.8993932	-0.27362483	0.9538194	0.95767445	0.30856903
400	1.596	1.0848577	0.065273701	-0.10044412	0.90905187	0.039495363	0.090020754	0.96202188	0.12031473	-0.1130318	0.76620865	0.054451966	0.1268989	0.98846755	0.1384106	-0.034456655	0.78699129	0.078979858	0.042066618	0.8988561	0.10173524	-0.060180455	0.71579908	0.029495826	0.081257341	1.0811171	0.49281326	-0.13377285	0.86301035	0.44688257	0.15074744	1.1083112	0.46610591	-0.014923277	0.87816152	0.44845447	0.022769692	0.92839762	0.83726912	-0.18086753	0.84279906	0.86551057	0.19489786	0.96143466	0.94850404	-0.10526449	0.92546404	0.95670582	0.13431627	0.75058321	0.96203543	-0.019888833	0.90637928	1.4231526	-0.14029259	0.83914187	1.4206075	0.17495923	0.79496375	1.4454322	-0.0019163218	0.80670124	1.0956238	-0.21221817	0.75313899	1.0675038	0.22211967	0.93871797	0.89843647	-0.27481159	0.96247759	0.95925589	0.30847646
401	1.6	1.1021248	0.06495645	-0.10092234	0.90915175	0.039517043	0.090039093	0.97787918	0.11662577	-0.11344155	0.76630767	0.054514614	0.12672953	1.0026638	0.13482486	-0.034866849	0.78721903	0.078887093	0.041920898	0.91527175	0.09647994	-0.060511081	0.71574529	0.029588431	0.081109964	1.0873183	0.49252691	-0.13407966	0.86471651	0.44650367	0.15055957	1.1144828	0.46592001	-0.015334203	0.88004734	0.44793822	0.022593653	0.9343029	0.8373457	-0.18106269	0.84588371	0.8648613	0.19476057	0.96700124	0.94850454	-0.10495629	0.92962551	0.95640079	0.13454776	0.75570103	0.96162154	-0.021099185	0.91102791	1.4227265	-0.14055253	0.84374545	1.420245	0.17470559	0.7996458	1.4450796	-0.0021697061	0.81016731	1.0958037	-0.21241209	0.75963243	1.0668014	0.22371231	0.93984571	0.8974588	-0.2760181	0.97110866	0.960742	0.30836556
402	1.604	1.1193731	0.064783659	-0.10148009	0.90922268	0.039507271	0.0900245	0.99382701	0.11304165	-0.1139471	0.76639825	0.054570779	0.12656493	1.0171336	0.131432	-0.035234119	0.78747595	0.078771578	0.04176115	0.93182806	0.091361196	-0.060923379	0.71573413	0.029665294	0.081020996	1.0934685	0.49208524	-0.13438032	0.86647457	0.44609124	0.15032475	1.120583	0.46559556	-0.015749943	0.8818699	0.44743404	0.022334009	0.94015396	0.83731922	-0.18123066	0.84941963	0.86435189	0.19443643	0.9726021	0.948439	-0.10466624	0.93377139	0.9560571	0.13476669	0.76075073	0.96107945	-0.022257878	0.9156884	1.4222375	-0.14081119	0.84835869	1.4198153	0.17444744	0.80432809	1.4446616	-0.0024330574	0.81366216	1.0958967	-0.21255278	0.76612989	1.0660352	0.22530607	0.94100519	0.89646158	-0.27724237	0.97969685	0.96214827	0.30822989
403	1.608	1.1365828	0.064763888	-0.10212214	0.90924562	0.039473158	0.089981477	1.0097995	0.10961295	-0.1145341	0.7664827	0.054621898	0.1264006	1.0323374	0.12840848	-0.035748795	0.78765186	0.078663574	0.041552808	0.94849115	0.086427852	-0.061452001	0.71573099	0.029734007	0.080939048	1.099522	0.49146417	-0.13469168	0.86829386	0.44565789	0.15004747	1.1266389	0.465144	-0.016167492	0.8837001	0.44693002	0.022040321	0.94594945	0.83718369	-0.18137799	0.85324171	0.86400824	0.19394429	0.97825383	0.94830055	-0.10441092	0.93787601	0.95566306	0.13494159	0.76576977	0.9604517	-0.023335734	0.92036489	1.4216903	-0.14108321	0.85299673	1.419322	0.17419461	0.80900343	1.4441735	-0.0027256659	0.81714433	1.0959057	-0.21262357	0.77263826	1.0652131	0.22690651	0.94219573	0.89544214	-0.27847708	0.98825091	0.96348832	0.3080603
404	1.612	1.1537331	0.064906392	-0.10285059	0.90923075	0.039429872	0.089921374	1.0257525	0.10636257	-0.11520171	0.76656882	0.054671104	0.12623153	1.0479355	0.12567912	-0.03642685	0.78774969	0.078564853	0.041309981	0.96518474	0.081720158	-0.062169772	0.71572587	0.02980178	0.080847609	1.105445	0.49066067	-0.13505024	0.87018561	0.44521235	0.14973459	1.1326447	0.46456106	-0.016590266	0.88557696	0.44642896	0.021737055	0.95168311	0.83693762	-0.18149692	0.85695944	0.86371554	0.19343663	0.98395274	0.94809181	-0.10418905	0.94193431	0.95521875	0.13507184	0.77077938	0.95974706	-0.024362832	0.92505614	1.4210824	-0.14137306	0.85764894	1.4187635	0.1739416	0.8136694	1.4436146	-0.0030554523	0.82058685	1.0958373	-0.21263329	0.77915944	1.0643431	0.22850797	0.94342532	0.89439847	-0.2797192	0.9967773	0.96476531	0.30785475
405	1.616	1.1708137	0.065224029	-0.10365971	0.90918158	0.039382502	0.089849473	1.0416873	0.10327687	-0.11596705	0.76666367	0.054724997	0.12605383	1.0636268	0.12314185	-0.037206582	0.78781649	0.078465449	0.04105765	0.98184307	0.077250464	-0.063074956	0.71572142	0.029873397	0.080746748	1.1112479	0.48969422	-0.13547264	0.87215533	0.44475694	0.14939033	1.1385916	0.46384282	-0.017022281	0.88751289	0.44594185	0.021421716	0.95737206	0.83658225	-0.18158669	0.86054309	0.86337711	0.19296016	0.98965129	0.94781098	-0.10397091	0.94594861	0.95473272	0.13517126	0.77579682	0.95896275	-0.02538303	0.92976136	1.42041	-0.14167706	0.86230385	1.4181435	0.17367944	0.81833086	1.4429857	-0.0034109164	0.82401547	1.0956969	-0.21262968	0.78570006	1.0634272	0.23010204	0.94469362	0.89333421	-0.28096822	1.0052639	0.96597544	0.30762373
406	1.62	1.1878238	0.065731045	-0.10453494	0.90911297	0.039333367	0.089773856	1.0576255	0.10035783	-0.11684474	0.76676941	0.054791294	0.12586453	1.0793034	0.12074419	-0.038041382	0.78788699	0.078360899	0.040803053	0.99846753	0.072999828	-0.064044697	0.7157219	0.029951691	0.080639293	1.1169632	0.48858054	-0.13594177	0.87420295	0.44429098	0.14901926	1.1444797	0.46299189	-0.017467273	0.88951139	0.44547669	0.02108781	0.96308884	0.83613038	-0.18167088	0.8642749	0.86296271	0.19245041	0.99528719	0.94744756	-0.10372627	0.94993024	0.95421497	0.13525897	0.78085169	0.95809445	-0.026426587	0.93448351	1.4196729	-0.14199461	0.86696463	1.4174711	0.17340849	0.82299938	1.4422942	-0.0037741878	0.82749406	1.0954915	-0.21268057	0.79227265	1.0624696	0.23168965	0.94598681	0.89225187	-0.2822186	1.0136996	0.96711277	0.30738269
407	1.624	1.2047571	0.066438501	-0.10545916	0.90905552	0.039287496	0.089703078	1.073589	0.097636024	-0.11782322	0.76688397	0.054873427	0.12566326	1.0949051	0.1184697	-0.038917989	0.7879779	0.078252648	0.040540132	1.0151156	0.068938781	-0.064976213	0.71572873	0.03003752	0.080525825	1.1226068	0.48732802	-0.13643874	0.87632366	0.44381209	0.14862524	1.1503033	0.46200954	-0.017931913	0.89157556	0.44503442	0.020735244	0.96892261	0.83560367	-0.1817869	0.86826216	0.86247972	0.19188696	1.0008535	0.94699385	-0.10345898	0.95391543	0.9536723	0.13536069	0.78597178	0.95713821	-0.027509651	0.93922378	1.4188765	-0.14232778	0.87163861	1.4167485	0.17313368	0.8276841	1.441554	-0.0041355737	0.83106124	1.0952403	-0.21283242	0.79888713	1.0614822	0.23327766	0.94729015	0.89114853	-0.28346112	1.0220792	0.96817626	0.30714085
408	1.628	1.2215968	0.067354325	-0.10642127	0.9090214	0.039246847	0.089631593	1.0895993	0.095139917	-0.1188681	0.76700575	0.054966301	0.12545497	1.1103904	0.11634041	-0.039840486	0.7880894	0.07814486	0.040263784	1.0318081	0.065069752	-0.065943923	0.7157413	0.030130251	0.080404715	1.1281918	0.48595925	-0.13696927	0.87850931	0.44331682	0.14821268	1.156057	0.46089634	-0.01842309	0.89371129	0.44460908	0.02036567	0.97485689	0.83500437	-0.18194787	0.87234603	0.86194781	0.19132372	1.0064049	0.94645487	-0.10320027	0.95794434	0.95310323	0.13548901	0.79115497	0.95609822	-0.028624322	0.94397967	1.4180273	-0.14267554	0.87632305	1.4159646	0.17285363	0.83238346	1.4407715	-0.0044974254	0.83471049	1.0949763	-0.21311853	0.80555574	1.060474	0.23487163	0.94859423	0.89002223	-0.28468861	1.03039	0.96917114	0.30689771
